<svg width="167" height="78" viewBox="0 0 167 78" fill="none" xmlns="http://www.w3.org/2000/svg">
<g clip-path="url(#clip0_0_743)">
<g clip-path="url(#clip1_0_743)">
<g clip-path="url(#clip2_0_743)">
<path d="M46.5041 18.6145C48.6615 18.6145 50.8189 18.6145 52.9757 18.6145C53.0728 18.6145 53.1698 18.6202 53.2663 18.6145C53.4593 18.6021 53.5388 18.6997 53.5584 18.8808C53.5992 19.2514 53.6658 19.6199 53.6916 19.991C53.8562 22.3776 53.5775 24.7037 52.7161 26.9473C51.9497 28.9437 50.6929 30.5829 49.0754 31.9614C47.0646 33.6755 44.7451 34.6917 42.1325 35.0659C39.2118 35.4845 36.3504 35.277 33.633 34.0966C28.2922 31.7772 25.0128 27.755 24.1643 21.9652C23.5207 17.5719 24.7846 13.6375 27.645 10.243C29.8432 7.63401 32.6302 5.94939 35.9432 5.14114C37.6371 4.72773 39.3537 4.66321 41.0864 4.82579C43.7377 5.07508 46.1304 5.99533 48.2806 7.55711C48.773 7.91478 49.2416 8.30187 49.6886 8.7158C49.8398 8.85567 49.8697 8.96251 49.7107 9.12457C48.8576 9.99217 48.0153 10.8701 47.1637 11.7392C46.9877 11.9189 46.9774 11.908 46.7296 11.6871C45.6742 10.7488 44.4917 10.0237 43.1575 9.55089C41.811 9.07399 40.4216 8.88664 38.9986 8.95632C36.0098 9.10238 33.4885 10.2729 31.4602 12.4685C30.0377 14.0081 29.1242 15.8249 28.765 17.8909C28.1833 21.239 28.878 24.3022 30.9931 26.9855C32.6111 29.0381 34.7365 30.3134 37.3021 30.8223C39.5643 31.2708 41.7914 31.1186 43.9276 30.2262C45.8151 29.4376 47.3485 28.2015 48.3497 26.3821C48.9159 25.353 49.2184 24.233 49.3908 23.0764C49.4284 22.8255 49.4104 22.8085 49.1188 22.8059C48.2893 22.7982 47.4594 22.7956 46.63 22.7956C44.4453 22.7946 42.26 22.7956 40.0753 22.7956C39.9648 22.7956 39.8539 22.7904 39.7434 22.7956C39.554 22.8044 39.4704 22.7301 39.4714 22.5293C39.4771 21.3123 39.4766 20.0953 39.4714 18.8788C39.4704 18.6811 39.5488 18.6088 39.7419 18.6135C40.0871 18.6217 40.4335 18.615 40.7787 18.615C42.6868 18.615 44.5955 18.615 46.5036 18.615L46.5041 18.6145Z" fill="#4486F4"/>
<path d="M112.562 17.7655C112.685 17.6566 112.64 17.5239 112.642 17.4063C112.649 17.1023 112.65 16.7978 112.642 16.4938C112.638 16.3131 112.682 16.2104 112.893 16.2114C114.096 16.2171 115.299 16.2161 116.502 16.2125C116.675 16.2125 116.76 16.2796 116.757 16.455C116.755 16.5516 116.757 16.6486 116.757 16.7456C116.757 22.3177 116.76 27.8892 116.755 33.4613C116.753 34.9998 116.64 36.5275 116.161 38.0042C115.07 41.3646 112.758 43.3145 109.293 43.905C107.762 44.1656 106.237 44.1218 104.734 43.6882C102.721 43.1071 101.117 41.9437 99.8611 40.2828C99.4513 39.7409 99.1044 39.1598 98.8231 38.5404C98.6931 38.2535 98.6931 38.2452 98.9919 38.1198C100.049 37.6759 101.109 37.2351 102.169 36.798C102.453 36.6808 102.461 36.686 102.6 36.9688C103.078 37.9453 103.74 38.7629 104.656 39.359C105.642 40 106.723 40.2421 107.894 40.1507C108.734 40.0852 109.534 39.9035 110.263 39.4725C111.429 38.7835 112.076 37.7224 112.404 36.4408C112.672 35.3972 112.65 34.3309 112.641 33.2662C112.641 33.1996 112.653 33.1118 112.579 33.0814C112.438 33.0226 112.389 33.1609 112.32 33.2326C111.232 34.3722 109.875 34.9756 108.338 35.1784C106.572 35.4117 104.884 35.0907 103.317 34.2633C100.299 32.67 98.4969 30.1663 98.0175 26.7888C97.6103 23.9187 98.3803 21.3309 100.218 19.0857C101.544 17.4661 103.222 16.357 105.266 15.8641C107.381 15.3536 109.411 15.5508 111.285 16.7425C111.636 16.9655 111.96 17.2236 112.251 17.5229C112.342 17.6168 112.416 17.7443 112.561 17.7675L112.562 17.7655ZM112.929 25.2859C112.941 24.5917 112.804 23.7639 112.492 22.9695C111.901 21.4707 110.916 20.3435 109.377 19.7768C107.245 18.9918 104.794 19.7975 103.424 21.7066C102.524 22.9613 102.171 24.3687 102.269 25.8959C102.388 27.7339 103.124 29.2652 104.628 30.3599C106.879 31.9975 109.985 31.6404 111.715 29.3287C112.577 28.1767 112.937 26.8678 112.929 25.2854L112.929 25.2859Z" fill="#4486F4"/>
<path d="M65.1274 15.5895C68.6551 15.7309 71.5903 17.2375 73.4999 20.486C74.5766 22.3172 74.9317 24.3274 74.7288 26.4379C74.5296 28.5101 73.775 30.3537 72.3924 31.9124C70.4383 34.1162 67.9522 35.2274 65.0232 35.229C61.3138 35.2305 58.3884 33.6837 56.4333 30.4967C54.3157 27.0453 54.4783 21.7432 57.991 18.3492C59.5203 16.8716 61.3572 16.0096 63.4609 15.7056C63.9553 15.6339 64.4523 15.6262 65.1279 15.589L65.1274 15.5895ZM70.4528 25.2069C70.4626 24.5112 70.2855 23.6245 69.9129 22.7765C68.2928 19.0867 63.4253 18.3337 60.8214 21.3706C59.0883 23.3922 58.9004 26.6226 60.3853 28.8812C62.4462 32.0151 66.8182 32.2231 69.1609 29.291C70.0584 28.1679 70.4497 26.8652 70.4528 25.2074V25.2069Z" fill="#EA4537"/>
<path d="M86.3362 35.2344C82.2527 35.077 79.1373 33.333 77.3598 29.5663C75.59 25.8146 76.4612 21.1933 79.4088 18.3407C80.9582 16.8414 82.8245 15.9686 84.9649 15.6987C87.4737 15.3828 89.82 15.855 91.9243 17.2775C94.4631 18.9941 95.839 21.4209 96.141 24.464C96.3268 26.3395 96.0429 28.146 95.1872 29.8218C93.5428 33.0435 90.8641 34.7916 87.2885 35.1998C87.1238 35.2184 86.9576 35.2277 86.7919 35.2334C86.6402 35.239 86.488 35.2344 86.3357 35.2344H86.3362ZM91.8592 25.4147C91.8572 24.1496 91.5588 23.0601 90.9405 22.0624C88.9333 18.8253 84.3502 18.5951 82.0364 21.615C80.4225 23.7213 80.375 26.883 81.9234 29.0703C83.8965 31.8569 87.8815 32.1568 90.2329 29.6814C91.3638 28.4913 91.8613 27.0441 91.8592 25.4141V25.4147Z" fill="#FBBD07"/>
<path d="M134.926 35.24C132.522 35.1956 130.044 34.1608 128.134 31.9156C126.694 30.2233 125.975 28.2305 125.861 26.0241C125.748 23.8321 126.158 21.746 127.336 19.8683C128.978 17.25 131.363 15.8183 134.45 15.6304C137.642 15.4364 140.127 16.7561 142.012 19.2923C142.788 20.3364 143.292 21.5173 143.753 22.7194C143.848 22.9687 143.839 22.9754 143.506 23.1132C141.335 24.0128 139.163 24.9113 136.991 25.8099C135.037 26.6187 133.082 27.4264 131.127 28.2346C131.076 28.2558 131.027 28.2811 130.974 28.2981C130.779 28.3611 130.758 28.4721 130.854 28.6444C131.59 29.9642 132.635 30.9066 134.143 31.2173C136.48 31.6983 138.632 30.9928 140.101 28.9041C140.285 28.6434 140.288 28.6388 140.553 28.8137C141.511 29.446 142.467 30.0808 143.422 30.7167C143.679 30.8875 143.683 30.8968 143.512 31.1244C141.508 33.7953 138.72 35.2544 134.926 35.2394V35.24ZM130.015 25.0961C130.168 25.044 130.259 25.0182 130.346 24.9826C132.972 23.892 135.598 22.8009 138.224 21.7088C138.831 21.4564 138.845 21.4177 138.441 20.8907C137.761 20.0035 136.824 19.5829 135.742 19.4451C133.592 19.171 131.54 20.516 130.645 22.2425C130.191 23.1183 129.991 24.0494 130.015 25.0961Z" fill="#EA4537"/>
<path d="M119.613 20.2027C119.613 15.5566 119.613 10.9104 119.613 6.26482C119.613 5.72909 119.561 5.76315 120.094 5.76419C121.255 5.76573 122.417 5.76728 123.578 5.77296C123.924 5.77451 123.924 5.7807 123.932 6.11205C123.933 6.18121 123.932 6.25037 123.932 6.31953C123.932 15.5839 123.932 24.8483 123.93 34.1127C123.93 34.6928 124.022 34.6453 123.404 34.6464C122.312 34.6484 121.219 34.6469 120.126 34.6464C120.029 34.6464 119.933 34.6417 119.836 34.6453C119.684 34.651 119.601 34.5953 119.611 34.4306C119.617 34.3202 119.611 34.2092 119.611 34.0988C119.611 29.4666 119.611 24.8344 119.611 20.2022L119.613 20.2027Z" fill="#36A954"/>
</g>
</g>
</g>
<g clip-path="url(#clip3_0_743)">
<g clip-path="url(#clip4_0_743)">
<g clip-path="url(#clip5_0_743)">
<path d="M76.5994 71.9265C76.5994 72.7771 76.977 73.083 77.5887 72.8249C78.2673 72.5382 78.9124 72.1607 79.5719 71.8213C80.9148 71.1236 82.2529 70.4164 83.6053 69.7377C83.7774 69.6517 84.0641 69.6708 84.2457 69.7569C84.9577 70.0866 85.6459 70.4594 86.3388 70.8273C87.0222 71.1905 87.7008 71.5633 88.389 71.9265C88.929 72.2132 89.4738 72.4952 90.0186 72.7724C90.3436 72.9396 90.6924 72.9731 90.9983 72.7532C91.3232 72.5143 91.242 72.1368 91.1942 71.8213C91.0413 70.7365 90.8549 69.6613 90.6637 68.5813C90.4678 67.4773 90.2528 66.3734 90.0568 65.2695C90.0425 65.1835 90.0951 65.0544 90.162 64.9875C90.7354 64.4332 91.328 63.8979 91.8919 63.334C92.9719 62.2683 94.0329 61.1883 95.1129 60.1274C95.3423 59.9028 95.3518 59.659 95.2897 59.3867C95.218 59.0712 94.9791 58.9088 94.6876 58.8562C93.9851 58.7367 93.2778 58.6364 92.5705 58.5408C91.1942 58.3544 89.8131 58.1919 88.4368 57.9817C88.0162 57.9195 87.6626 57.8096 87.4236 57.2839C86.5682 55.3772 85.5981 53.5277 84.6758 51.6496C84.3365 50.9567 83.6531 50.8707 83.2708 51.511C82.8646 52.1944 82.5301 52.916 82.1764 53.6233C81.5313 54.9184 80.8957 56.223 80.2457 57.5181C80.1311 57.7475 79.9638 57.9195 79.6532 57.9291C79.2326 57.9434 78.8169 58.0247 78.4011 58.082C77.3497 58.2302 76.3031 58.3783 75.2566 58.5408C74.5015 58.6555 73.7464 58.775 72.9961 58.9374C72.4991 59.0474 72.3223 59.5396 72.6138 59.9553C72.8241 60.2516 73.0869 60.5049 73.3402 60.7678C73.8086 61.2552 74.2817 61.7474 74.7691 62.2205C75.6914 63.1238 76.6329 64.0078 77.5504 64.9158C77.6556 65.021 77.7081 65.2551 77.6842 65.4128C77.5743 66.1536 77.4262 66.8895 77.2972 67.6303C77.1777 68.3328 77.063 69.0352 76.9483 69.7425C76.8193 70.5358 76.695 71.3291 76.5947 71.936L76.5994 71.9265ZM134.118 71.9838C134.118 72.7867 134.386 73.0113 135.064 72.8249C135.318 72.758 135.557 72.6338 135.791 72.5143C136.57 72.1129 137.344 71.6971 138.123 71.2909C139.088 70.7843 140.058 70.2778 141.029 69.7712C141.311 69.6231 141.554 69.6278 141.855 69.7999C142.534 70.1917 143.246 70.5263 143.948 70.8847C144.56 71.1953 145.181 71.4868 145.784 71.807C146.41 72.1368 147.012 72.5143 147.643 72.8393C148.077 73.0639 148.856 72.8536 148.732 72.1368C148.57 71.1858 148.422 70.2348 148.269 69.2838C148.058 67.9887 147.867 66.6888 147.628 65.3985C147.58 65.15 147.628 65.0258 147.795 64.8728C148.34 64.371 148.876 63.8597 149.406 63.3388C149.927 62.8275 150.438 62.3066 150.954 61.7952C151.509 61.2409 152.077 60.6961 152.622 60.1274C153.081 59.6495 152.895 59.0665 152.249 58.9231C151.752 58.8132 151.251 58.7224 150.749 58.6411C150.008 58.5217 149.263 58.407 148.517 58.3066C147.666 58.1919 146.816 58.1107 145.97 57.9817C145.707 57.9434 145.392 57.8574 145.224 57.6758C144.971 57.4082 144.804 57.045 144.637 56.7057C144.187 55.7929 143.767 54.8706 143.322 53.953C142.935 53.155 142.529 52.3664 142.137 51.5732C141.874 51.0475 141.239 50.9137 140.919 51.3342C140.756 51.5445 140.618 51.7739 140.498 52.0128C140.121 52.7583 139.757 53.5134 139.394 54.2685C138.873 55.3437 138.357 56.419 137.827 57.4847C137.76 57.6185 137.626 57.7618 137.492 57.8144C137.253 57.91 136.99 57.953 136.732 57.9912C135.839 58.125 134.94 58.2541 134.047 58.3783C133.062 58.5121 132.073 58.6268 131.088 58.7797C130.792 58.8275 130.472 58.9135 130.238 59.0856C129.894 59.3389 129.989 59.8932 130.348 60.2086C130.505 60.3472 130.697 60.5193 130.845 60.6626C131.28 61.0736 131.695 61.4989 132.111 61.9242C132.584 62.4069 133.048 62.8944 133.526 63.3723C133.994 63.8406 134.467 64.3137 134.955 64.7581C135.198 64.978 135.251 65.2312 135.208 65.518C135.06 66.4642 134.907 67.4056 134.744 68.3471C134.606 69.1499 134.434 69.948 134.295 70.7509C134.219 71.1905 134.176 71.635 134.128 71.9838H134.118ZM47.8018 71.9599C47.8018 72.6529 48.0694 72.9731 48.5043 72.9109C48.7623 72.8727 49.03 72.7915 49.2594 72.672C49.8997 72.3422 50.521 71.9695 51.1566 71.6302C52.3704 70.9898 53.5843 70.3494 54.8172 69.7425C54.9988 69.6565 55.2999 69.6947 55.4958 69.7855C56.1983 70.1057 56.8865 70.4689 57.5746 70.8273C58.2198 71.1619 58.8554 71.5107 59.5053 71.8452C60.1791 72.1893 60.8482 72.5477 61.5411 72.8536C62.0095 73.0591 62.4635 72.7437 62.4109 72.2467C62.3201 71.3721 62.1767 70.5024 62.0333 69.6374C61.804 68.2324 61.5794 66.8274 61.3022 65.4272C61.2496 65.15 61.3404 65.0066 61.4886 64.8633C61.9999 64.3663 62.5399 63.8979 63.0465 63.3961C64.1504 62.3066 65.2543 61.217 66.3344 60.1035C66.6832 59.7451 66.5876 59.076 66.0285 58.9374C65.7609 58.8705 65.4837 58.818 65.2113 58.7797C64.2508 58.6411 63.2902 58.5121 62.3296 58.3735C61.4694 58.2493 60.6092 58.1394 59.7586 57.996C59.4575 57.9434 59.0943 57.8909 58.8936 57.6997C58.6308 57.4464 58.4922 57.0593 58.3249 56.72C58.0525 56.1752 57.8136 55.6161 57.5412 55.0713C57.1923 54.3736 56.81 53.6854 56.4612 52.9877C56.2365 52.5385 56.0502 52.0654 55.8303 51.6114C55.6822 51.3055 55.4337 51.0618 55.0944 51.0714C54.7551 51.0809 54.54 51.3342 54.3919 51.6496C54.0908 52.29 53.7706 52.9256 53.4504 53.5564C52.8005 54.8371 52.1267 56.1083 51.5198 57.4082C51.386 57.6949 51.3143 57.8335 50.975 57.8765C49.9141 58.0103 48.8579 58.211 47.8018 58.3783C46.6166 58.5647 45.4315 58.7558 44.2463 58.9231C43.7302 58.9948 43.5486 59.5969 43.7923 59.9171C44.0073 60.1943 44.2558 60.4476 44.5091 60.6961C45.9476 62.1106 47.3908 63.5204 48.8197 64.9445C48.9105 65.0353 48.9487 65.2408 48.9296 65.3794C48.834 66.0054 48.7002 66.6267 48.5903 67.2527C48.4374 68.1034 48.2892 68.9588 48.1507 69.8094C48.0264 70.5788 47.9117 71.353 47.8161 71.9743L47.8018 71.9599ZM105.354 72.0651C105.292 72.7389 105.865 73.0639 106.429 72.8249C106.764 72.6815 107.07 72.4713 107.39 72.304C109.048 71.4438 110.706 70.5788 112.37 69.733C112.508 69.6613 112.704 69.6326 112.847 69.6756C113.086 69.7425 113.311 69.8716 113.536 69.9862C114.085 70.2682 114.63 70.5549 115.175 70.8417C115.7 71.1141 116.231 71.3817 116.757 71.6589C117.459 72.0316 118.138 72.4713 118.869 72.7771C119.514 73.0447 120.073 72.9301 119.997 72.0555C119.934 71.3196 119.81 70.5884 119.686 69.8572C119.442 68.4044 119.175 66.9517 118.931 65.4989C118.902 65.3316 118.897 65.1022 118.988 64.9827C119.261 64.6291 119.576 64.3041 119.901 63.9935C120.656 63.2671 121.426 62.5598 122.181 61.8382C122.711 61.3317 123.232 60.8108 123.758 60.2946C124.006 60.0509 124.188 59.7737 124.111 59.4058C124.044 59.0712 123.767 58.9374 123.476 58.8705C123.117 58.7893 122.749 58.7415 122.381 58.6889C121.55 58.5742 120.713 58.4691 119.877 58.3544C119.017 58.2349 118.152 58.1489 117.306 57.9721C116.948 57.8956 116.475 57.9625 116.312 57.3986C116.174 56.9351 115.877 56.5193 115.657 56.0749C115.309 55.3724 114.969 54.6651 114.616 53.9626C114.19 53.1215 113.779 52.2757 113.321 51.4537C113.048 50.9567 112.503 50.9423 112.183 51.4059C111.925 51.7786 111.715 52.1849 111.509 52.5911C111.036 53.5182 110.582 54.45 110.119 55.3772C109.751 56.1131 109.387 56.8538 109 57.5802C108.938 57.6949 108.771 57.7905 108.637 57.8144C108.002 57.9386 107.361 58.0438 106.721 58.1394C105.459 58.3257 104.193 58.493 102.931 58.6794C102.544 58.7367 102.147 58.7941 101.775 58.9135C101.306 59.0617 101.22 59.3389 101.335 59.812C101.44 60.2516 101.799 60.4285 102.076 60.7008C103.342 61.929 104.585 63.1811 105.865 64.3902C106.353 64.8489 106.625 65.2551 106.425 66.0054C106.123 67.1285 106.004 68.3041 105.803 69.4558C105.655 70.3208 105.497 71.1858 105.345 72.0507L105.354 72.0651ZM19.0041 71.9791C19.0089 72.6433 19.2431 72.9396 19.7305 72.8918C19.9647 72.8679 20.2084 72.7962 20.4235 72.6863C21.0113 72.3853 21.5752 72.0412 22.1582 71.7305C23.1331 71.2192 24.1128 70.7222 25.0877 70.2204C25.1641 70.1822 25.231 70.1153 25.3123 70.0723C25.8475 69.7855 26.3445 69.4319 26.9992 69.8955C27.5249 70.2634 28.1271 70.5215 28.7005 70.8226C29.2836 71.1284 29.8666 71.4247 30.4544 71.7162C31.2142 72.0985 31.9597 72.5047 32.7435 72.8345C33.2596 73.0495 33.6467 72.7437 33.6132 72.1845C33.5798 71.6015 33.4842 71.0185 33.3886 70.4402C33.1497 69.0114 32.9251 67.5777 32.6383 66.1536C32.495 65.4511 32.4376 64.8442 33.1401 64.4045C33.3313 64.285 33.4747 64.0795 33.6419 63.917C34.2871 63.2958 34.937 62.6745 35.5821 62.0485C36.1795 61.4655 36.7482 60.849 37.3695 60.2946C37.6514 60.0414 37.7613 59.7642 37.7183 59.4297C37.6801 59.0951 37.4077 58.9422 37.1066 58.8658C36.9107 58.818 36.7052 58.7893 36.5045 58.7606C35.4913 58.622 34.483 58.493 33.4699 58.3544C32.624 58.2349 31.7734 58.1394 30.9371 57.9673C30.593 57.9004 30.1677 57.9339 29.9622 57.4942C29.5129 56.548 29.0207 55.6161 28.5572 54.6747C28.0458 53.6376 27.5584 52.5911 27.0184 51.5684C26.7221 51.0092 26.0482 50.8085 25.6659 51.5062C25.4604 51.8838 25.2502 52.2613 25.0638 52.6484C24.7101 53.3796 24.3804 54.1251 24.0268 54.8563C23.7209 55.4823 23.4246 56.1131 23.071 56.7105C22.789 57.1979 22.7604 57.8765 21.9193 57.9434C20.7007 58.039 19.4964 58.2732 18.2873 58.4452C17.3793 58.5742 16.4665 58.6794 15.5681 58.861C15.3196 58.9135 14.9803 59.1764 14.9325 59.3962C14.8465 59.8693 15.5538 60.5049 15.7019 60.6531C16.2324 61.1931 16.7485 61.7474 17.2837 62.2827C18.1535 63.1429 19.0328 63.984 19.9121 64.8346C20.0985 65.0162 20.175 65.193 20.1081 65.4797C19.9647 66.0867 19.8835 66.7079 19.7831 67.3244C19.6063 68.3758 19.4295 69.4319 19.2526 70.4833C19.1666 70.9994 19.0806 71.5107 19.0089 71.9695L19.0041 71.9791Z" fill="#FBBD07"/>
</g>
</g>
</g>
<defs>
<clipPath id="clip0_0_743">
<rect width="129.039" height="47.2004" fill="white" transform="translate(19.3822 0.803345)"/>
</clipPath>
<clipPath id="clip1_0_743">
<rect width="129.039" height="47.2004" fill="white" transform="translate(19.3822 0.803345)"/>
</clipPath>
<clipPath id="clip2_0_743">
<rect width="129.03" height="47.2004" fill="white" transform="translate(19.3856 0.803467)"/>
</clipPath>
<clipPath id="clip3_0_743">
<rect width="143.807" height="22.3892" fill="white" transform="translate(11.998 50.839)"/>
</clipPath>
<clipPath id="clip4_0_743">
<rect width="143.377" height="38.2312" fill="white" transform="translate(12.2134 42.876)"/>
</clipPath>
<clipPath id="clip5_0_743">
<rect width="143.367" height="38.2312" fill="white" transform="translate(12.2179 42.876)"/>
</clipPath>
</defs>
</svg>
