<svg width="35" height="39" viewBox="0 0 35 39" fill="none" xmlns="http://www.w3.org/2000/svg">
<path d="M30.4502 0.975C32.7697 0.975104 34.6504 2.85566 34.6504 5.1752V21.8646C34.3781 21.5769 34.0789 21.3253 33.751 21.1117C32.8283 20.4746 31.6853 20.1557 30.3232 20.1557H30.0928C28.7526 20.1557 27.6209 20.4746 26.6982 21.1117C25.7756 21.7269 25.0731 22.65 24.5898 23.8803C24.5673 23.9404 24.5478 24.0022 24.5264 24.0639C24.5038 24.0021 24.4817 23.9406 24.458 23.8803C23.9967 22.6501 23.3044 21.7269 22.3818 21.1117C21.4811 20.4746 20.3494 20.1557 18.9873 20.1557H18.7568C17.4167 20.1557 16.285 20.4746 15.3623 21.1117C14.4396 21.7269 13.7475 22.65 13.2861 23.8803C13.1258 24.3078 12.9952 24.7729 12.8906 25.2748V20.7162H8.70605V38.7748H0V0.975H30.4502ZM17.0762 24.8686C17.9988 24.8686 18.7125 25.1763 19.2178 25.7914C19.745 26.4065 20.0088 27.2082 20.0088 28.1967V38.7748H13.9785V28.2953C13.9786 27.2632 14.2528 26.4396 14.8018 25.8246C15.351 25.1875 16.1095 24.8686 17.0762 24.8686ZM28.3789 24.8686C29.3236 24.8686 30.0484 25.1763 30.5537 25.7914C31.0809 26.4065 31.3447 27.2081 31.3447 28.1967V38.7748H25.3145V28.2953C25.3145 27.263 25.5895 26.4397 26.1387 25.8246C26.6879 25.1875 27.4343 24.8686 28.3789 24.8686Z" fill="#1DA7FB"/>
</svg>
