<svg width="160" height="93" viewBox="0 0 160 93" fill="none" xmlns="http://www.w3.org/2000/svg">
<g clip-path="url(#clip0_0_703)">
<g clip-path="url(#clip1_0_703)">
<g clip-path="url(#clip2_0_703)">
<path d="M42.4342 14.2648H58.5629V17.2789H52.2284V34.1892H48.7406V17.2789H42.4342V14.2648ZM57.8657 19.7615H60.8516V22.552H60.9078C61.0006 22.1612 61.1819 21.7802 61.4518 21.4077C61.7218 21.0352 62.0465 20.6964 62.4289 20.3885C62.8098 20.082 63.233 19.8346 63.6983 19.649C64.1636 19.4635 64.6374 19.3707 65.121 19.3707C65.4935 19.3707 65.7494 19.3805 65.8885 19.3988C66.0277 19.4171 66.1725 19.4368 66.3215 19.455V22.5239C66.098 22.4874 65.8703 22.4536 65.6383 22.4255C65.405 22.3974 65.1772 22.3833 64.9551 22.3833C64.4153 22.3833 63.9092 22.4902 63.434 22.7038C62.9603 22.9175 62.5456 23.2338 62.1927 23.6528C61.8384 24.0717 61.5601 24.5876 61.3548 25.2019C61.1496 25.8163 61.0484 26.5234 61.0484 27.3233V34.1878H57.8671V19.7615H57.8657ZM80.9193 34.1878H77.7943V32.1789H77.738C77.3472 32.9043 76.7652 33.4863 75.9934 33.9235C75.2216 34.3607 74.4358 34.58 73.6359 34.58C71.7381 34.58 70.366 34.1105 69.5197 33.1714C68.6734 32.2323 68.2503 30.8139 68.2503 28.9161V19.7629H71.4316V28.6082C71.4316 29.8734 71.6734 30.7661 72.157 31.2876C72.6406 31.8092 73.3196 32.0693 74.194 32.0693C74.8632 32.0693 75.4213 31.9667 75.8683 31.7628C76.3154 31.559 76.6781 31.2834 76.9564 30.939C77.2362 30.5946 77.4358 30.1813 77.5567 29.6977C77.6776 29.2141 77.738 28.6925 77.738 28.1344V19.7629H80.9193V34.1892V34.1878ZM86.3331 29.5557C86.4259 30.4863 86.7801 31.1372 87.393 31.5098C88.0074 31.8823 88.7412 32.0679 89.5973 32.0679C89.8954 32.0679 90.2342 32.0454 90.6165 31.9976C90.9975 31.9512 91.356 31.8626 91.6906 31.7319C92.0252 31.6025 92.2993 31.4114 92.5144 31.1597C92.7281 30.9081 92.8251 30.5791 92.8068 30.1686C92.7885 29.7595 92.6395 29.425 92.3597 29.1635C92.08 28.9034 91.7215 28.694 91.2857 28.5351C90.8485 28.3776 90.3508 28.2427 89.7927 28.1302C89.2346 28.0192 88.6667 27.8983 88.0903 27.7675C87.4943 27.6382 86.9221 27.4793 86.3738 27.2924C85.8256 27.1068 85.3321 26.8552 84.8949 26.5389C84.4577 26.2226 84.1091 25.8177 83.849 25.3257C83.589 24.8336 83.4582 24.2235 83.4582 23.4981C83.4582 22.7165 83.6494 22.0614 84.0304 21.5314C84.4114 21.0014 84.8949 20.5741 85.4812 20.2479C86.0674 19.9232 86.7183 19.694 87.4338 19.5647C88.1494 19.4354 88.834 19.3693 89.4849 19.3693C90.2285 19.3693 90.9399 19.448 91.6203 19.6069C92.2993 19.7657 92.9136 20.0216 93.4619 20.3744C94.0101 20.7287 94.467 21.1884 94.8297 21.7563C95.1924 22.3243 95.4202 23.0075 95.5129 23.8074H92.1924C92.0434 23.0455 91.6948 22.5337 91.1465 22.2723C90.5969 22.0122 89.9699 21.8814 89.2628 21.8814C89.0392 21.8814 88.7749 21.8997 88.4671 21.9377C88.1606 21.9756 87.871 22.0445 87.6025 22.1471C87.3326 22.2498 87.1049 22.3988 86.9193 22.5942C86.7337 22.7896 86.6395 23.0455 86.6395 23.3618C86.6395 23.7526 86.7745 24.0689 87.0444 24.3107C87.3143 24.5525 87.6672 24.7521 88.1044 24.9109C88.5416 25.0698 89.0392 25.2034 89.5973 25.3158C90.1554 25.4269 90.7318 25.5492 91.3279 25.6785C91.9043 25.8093 92.4722 25.9667 93.0303 26.1523C93.5884 26.3378 94.0861 26.5895 94.5233 26.9058C94.9605 27.2221 95.3133 27.6227 95.5832 28.1063C95.8531 28.5899 95.9881 29.186 95.9881 29.8917C95.9881 30.7478 95.7927 31.4732 95.4019 32.0679C95.0111 32.6639 94.5036 33.1475 93.8808 33.5187C93.258 33.8912 92.565 34.1611 91.8016 34.3284C91.0383 34.4957 90.2848 34.58 89.5411 34.58C88.6287 34.58 87.7881 34.4774 87.0163 34.2736C86.2445 34.0683 85.5739 33.7576 85.0074 33.3387C84.4395 32.9198 83.9938 32.3996 83.6677 31.7755C83.3415 31.1527 83.17 30.4132 83.1518 29.5571H86.3331V29.5557ZM96.8246 19.7615H99.2243V15.4359H102.406V19.7615H105.28V22.1331H102.406V29.8355C102.406 30.17 102.42 30.4596 102.448 30.7C102.476 30.9418 102.541 31.1471 102.643 31.3144C102.746 31.4816 102.899 31.6068 103.104 31.6911C103.308 31.7755 103.588 31.8162 103.941 31.8162C104.164 31.8162 104.388 31.812 104.61 31.8022C104.833 31.7923 105.057 31.76 105.279 31.7052V34.1611C104.925 34.1977 104.582 34.2356 104.247 34.2722C103.913 34.3087 103.568 34.3284 103.215 34.3284C102.377 34.3284 101.704 34.2497 101.192 34.0908C100.681 33.9334 100.28 33.7 99.9918 33.3935C99.7036 33.0871 99.5082 32.7005 99.4056 32.2352C99.303 31.7698 99.2425 31.2399 99.2243 30.6452V22.1345H96.8246V19.7629V19.7615ZM107.511 19.7615H110.525V21.7142H110.582C111.029 20.8777 111.652 20.2774 112.451 19.9147C113.251 19.552 114.116 19.3707 115.047 19.3707C116.181 19.3707 117.172 19.5703 118.018 19.971C118.865 20.3716 119.568 20.9199 120.126 21.6172C120.684 22.3144 121.103 23.1284 121.381 24.059C121.659 24.9897 121.8 25.985 121.8 27.0449C121.8 28.0121 121.675 28.9526 121.423 29.8636C121.172 30.7759 120.791 31.5801 120.279 32.2773C119.767 32.9746 119.121 33.5327 118.339 33.9516C117.557 34.3706 116.636 34.58 115.576 34.58C115.111 34.58 114.646 34.5379 114.182 34.4549C113.717 34.3706 113.27 34.2356 112.842 34.05C112.413 33.8645 112.018 33.6269 111.656 33.3387C111.293 33.0505 110.991 32.7103 110.749 32.3195H110.693V39.5186H107.511V19.7615ZM118.617 26.9887C118.617 26.3378 118.533 25.7052 118.366 25.0909C118.198 24.4766 117.947 23.9325 117.612 23.4588C117.278 22.985 116.859 22.604 116.357 22.3144C115.855 22.0262 115.277 21.8814 114.626 21.8814C113.286 21.8814 112.277 22.3468 111.598 23.276C110.919 24.2066 110.579 25.4437 110.579 26.9873C110.579 27.7127 110.667 28.3875 110.845 29.0103C111.022 29.633 111.286 30.1686 111.64 30.6143C111.993 31.0613 112.416 31.4142 112.91 31.6742C113.402 31.9357 113.974 32.0651 114.626 32.0651C115.352 32.0651 115.966 31.916 116.468 31.618C116.97 31.32 117.384 30.9348 117.709 30.4596C118.034 29.9845 118.267 29.4461 118.406 28.8416C118.546 28.2371 118.616 27.6185 118.616 26.9859L118.617 26.9887ZM124.226 14.2634H127.408V17.2775H124.226V14.2634ZM124.226 19.7601H127.408V34.1864H124.226V19.7601ZM130.25 14.2634H133.432V34.1878H130.25V14.2648V14.2634ZM143.17 34.5786C142.015 34.5786 140.988 34.3874 140.087 34.0065C139.184 33.6255 138.422 33.0997 137.798 32.4306C137.174 31.7614 136.7 30.9615 136.375 30.0309C136.049 29.1002 135.887 28.0768 135.887 26.962C135.887 25.8472 136.051 24.8505 136.375 23.9199C136.7 22.9892 137.175 22.1893 137.798 21.5202C138.421 20.851 139.184 20.3252 140.087 19.9443C140.989 19.5633 142.017 19.3721 143.17 19.3721C144.322 19.3721 145.35 19.5633 146.252 19.9443C147.155 20.3252 147.917 20.851 148.541 21.5202C149.164 22.1893 149.639 22.9906 149.964 23.9199C150.288 24.8505 150.452 25.8641 150.452 26.962C150.452 28.0599 150.288 29.1016 149.964 30.0309C149.638 30.9615 149.164 31.7614 148.541 32.4306C147.917 33.0997 147.155 33.6255 146.252 34.0065C145.35 34.3874 144.322 34.5786 143.17 34.5786ZM143.17 32.0665C143.877 32.0665 144.491 31.9174 145.011 31.6194C145.531 31.3214 145.96 30.932 146.295 30.447C146.629 29.9634 146.875 29.4193 147.034 28.8148C147.192 28.2104 147.272 27.5918 147.272 26.9592C147.272 26.3266 147.193 25.7319 147.034 25.1176C146.877 24.5033 146.629 23.9592 146.295 23.4855C145.96 23.0117 145.531 22.6251 145.011 22.3271C144.49 22.0291 143.877 21.88 143.17 21.88C142.462 21.88 141.848 22.0291 141.328 22.3271C140.806 22.6251 140.379 23.0103 140.044 23.4855C139.71 23.9606 139.462 24.5047 139.305 25.1176C139.146 25.7319 139.067 26.3449 139.067 26.9592C139.067 27.5735 139.146 28.2104 139.305 28.8148C139.462 29.4193 139.71 29.9634 140.044 30.447C140.379 30.9306 140.806 31.3214 141.328 31.6194C141.848 31.9174 142.462 32.0665 143.17 32.0665ZM151.374 19.7601H153.773V15.4345H156.955V19.7601H159.83V22.1317H156.955V29.8341C156.955 30.1686 156.969 30.4582 156.997 30.6986C157.025 30.9404 157.09 31.1457 157.192 31.313C157.295 31.4802 157.448 31.6054 157.653 31.6897C157.857 31.7741 158.137 31.8148 158.49 31.8148C158.713 31.8148 158.937 31.8106 159.159 31.8008C159.383 31.7909 159.606 31.7586 159.828 31.7038V34.1597C159.474 34.1962 159.131 34.2342 158.796 34.2708C158.462 34.3073 158.117 34.327 157.765 34.327C156.927 34.327 156.253 34.2483 155.742 34.0894C155.23 33.932 154.829 33.6986 154.541 33.3921C154.253 33.0857 154.057 32.6991 153.955 32.2338C153.852 31.7684 153.792 31.2384 153.773 30.6438V22.1331H151.374V19.7615V19.7601Z" fill="#191919"/>
<path d="M38.72 14.265L24.1503 14.2622L19.6489 0.406616L15.1476 14.2608L0.577881 14.2579L12.3655 22.8249L7.86413 36.6832L19.6503 28.1191L31.4338 36.6832L26.9324 22.8291L38.72 14.265Z" fill="#00B67A"/>
<path d="M27.953 25.9699L26.9324 22.8293L19.6504 28.1194L27.953 25.9699Z" fill="#005128"/>
</g>
</g>
</g>
<g clip-path="url(#clip3_0_703)">
<g clip-path="url(#clip4_0_703)">
<g clip-path="url(#clip5_0_703)">
<path d="M3.56921 80.4348H31.8379V51.6989H3.56921V80.4401V80.4348ZM34.8113 80.4348H63.08V51.6989H34.8113V80.4401V80.4348ZM66.0694 80.4348H94.3381V51.6989H66.0694V80.4401V80.4348ZM97.3274 80.4348H125.596V51.6989H97.3274V80.4401V80.4348ZM128.57 80.4348H156.838V51.6989H128.57V80.4401V80.4348Z" fill="#00B67A"/>
<path d="M15.4205 63.9269H7.84888L13.9762 68.4507L11.6347 75.7675L27.6699 63.9269H20.0983L17.7567 56.6049L15.4205 63.9269Z" fill="white"/>
<path d="M17.7567 71.2441L23.8788 75.7679L22.1372 70.3096L17.7567 71.2441Z" fill="white"/>
<path d="M140.421 63.9269H132.849L138.971 68.4507L136.635 75.7675L152.67 63.9269H145.099L142.757 56.6049L140.421 63.9269Z" fill="white"/>
<path d="M142.757 71.2441L148.879 75.7679L147.138 70.3096L142.757 71.2441Z" fill="white"/>
<path d="M109.178 63.9268H101.607L107.734 68.4506L105.392 75.7673L121.428 63.9268H113.856L111.52 56.6047L109.178 63.9268Z" fill="white"/>
<path d="M111.521 71.2441L117.643 75.7679L115.896 70.3096L111.521 71.2441Z" fill="white"/>
<path d="M77.9206 63.9269H70.349L76.4711 68.4507L74.1348 75.7675L90.17 63.9269H82.5984L80.2569 56.6049L77.9206 63.9269Z" fill="white"/>
<path d="M80.257 71.2441L86.379 75.7679L84.6374 70.3096L80.257 71.2441Z" fill="white"/>
<path d="M46.6099 64.0069H38.9215L45.1391 68.5466L42.7657 75.8899L59.0399 64.0069H51.3568L48.978 56.6636L46.6099 64.0069Z" fill="white"/>
<path d="M48.6747 71.2706L54.7702 75.89L53.0339 70.3096L48.6747 71.2706Z" fill="white"/>
<path d="M3.56921 80.4348H31.8379V51.6989H3.56921V80.4401V80.4348ZM34.8113 80.4348H63.08V51.6989H34.8113V80.4401V80.4348ZM66.0694 80.4348H94.3381V51.6989H66.0694V80.4401V80.4348ZM97.3274 80.4348H125.596V51.6989H97.3274V80.4401V80.4348ZM128.57 80.4348H156.838V51.6989H128.57V80.4401V80.4348Z" fill="#00B67A"/>
<path d="M3.56921 80.4348H31.8379V51.6989H3.56921V80.4401V80.4348ZM34.8113 80.4348H63.08V51.6989H34.8113V80.4401V80.4348ZM66.0694 80.4348H94.3381V51.6989H66.0694V80.4401V80.4348ZM97.3274 80.4348H125.596V51.6989H97.3274V80.4401V80.4348ZM128.57 80.4348H142.762V51.6989H128.57V80.4401V80.4348Z" fill="#00B67A"/>
<path d="M15.4205 63.9269H7.84888L13.9762 68.4507L11.6347 75.7675L27.6699 63.9269H20.0983L17.7567 56.6049L15.4205 63.9269Z" fill="white"/>
<path d="M17.7567 71.2441L23.8788 75.7679L22.1372 70.3096L17.7567 71.2441Z" fill="white"/>
<path d="M156.839 51.6989H142.704V80.4401H156.839V51.6989Z" fill="#D1D3D4"/>
<path d="M140.421 63.9269H132.849L138.971 68.4507L136.635 75.7675L152.67 63.9269H145.099L142.757 56.6049L140.421 63.9269Z" fill="white"/>
<path d="M142.757 71.2441L148.879 75.7679L147.138 70.3096L142.757 71.2441Z" fill="white"/>
<path d="M109.178 63.9268H101.607L107.734 68.4506L105.392 75.7673L121.428 63.9268H113.856L111.52 56.6047L109.178 63.9268Z" fill="white"/>
<path d="M111.521 71.2441L117.643 75.7679L115.896 70.3096L111.521 71.2441Z" fill="white"/>
<path d="M77.9206 63.9269H70.349L76.4711 68.4507L74.1348 75.7675L90.17 63.9269H82.5984L80.2569 56.6049L77.9206 63.9269Z" fill="white"/>
<path d="M80.257 71.2441L86.379 75.7679L84.6374 70.3096L80.257 71.2441Z" fill="white"/>
<path d="M46.6099 64.0069H38.9215L45.1391 68.5466L42.7657 75.8899L59.0399 64.0069H51.3568L48.978 56.6636L46.6099 64.0069Z" fill="white"/>
<path d="M48.6747 71.2706L54.7702 75.89L53.0339 70.3096L48.6747 71.2706Z" fill="white"/>
</g>
</g>
</g>
<defs>
<clipPath id="clip0_0_703">
<rect width="159.307" height="39.1121" fill="white" transform="translate(0.550049 0.406616)"/>
</clipPath>
<clipPath id="clip1_0_703">
<rect width="159.307" height="39.1121" fill="white" transform="translate(0.550049 0.406616)"/>
</clipPath>
<clipPath id="clip2_0_703">
<rect width="159.252" height="39.1121" fill="white" transform="translate(0.578125 0.406616)"/>
</clipPath>
<clipPath id="clip3_0_703">
<rect width="159.307" height="53.0967" fill="white" transform="translate(0.550049 39.5186)"/>
</clipPath>
<clipPath id="clip4_0_703">
<rect width="159.307" height="53.0967" fill="white" transform="translate(0.550049 39.5186)"/>
</clipPath>
<clipPath id="clip5_0_703">
<rect width="159.29" height="53.0967" fill="white" transform="translate(0.55896 39.5186)"/>
</clipPath>
</defs>
</svg>
